Coordinates
version=1
nRows=43
nColumns=12
inDegrees=yes

Units are S.I. units (second, meters, Newtons, ...)
Angles are in degrees

endheader
time	SC_y	SC_z	SC_x	AC_y	AC_z	AC_x	GH_y	GH_z	GH_yy	EL_x	PS_y
       0.0              -58.21          33.91          31.78          36.06         -17.47          5.891         -163.7         -1.227         -9.795           50.0          48.59
    0.0316              -58.21          33.91          31.78          36.06         -17.46          5.893         -163.7         -1.222         -9.791           50.0          48.59
   0.06321              -58.21          33.91          31.78          36.06         -17.46          5.895         -163.6         -1.216         -9.785          49.99          48.58
   0.09481              -58.21          33.91          31.78          36.07         -17.46          5.897         -163.6         -1.211          -9.78          49.98          48.58
    0.1264              -58.21          33.91          31.77          36.07         -17.46            5.9         -163.5         -1.205         -9.774          49.98          48.57
     0.158              -58.21          33.91          31.77          36.08         -17.45          5.902         -163.5         -1.198         -9.768          49.97          48.57
    0.1896               -58.2           33.9          31.77          36.08         -17.45          5.905         -163.4         -1.191         -9.762          49.96          48.56
    0.2212               -58.2           33.9          31.77          36.09         -17.45          5.908         -163.4         -1.184         -9.754          49.95          48.55
    0.2528               -58.2           33.9          31.77           36.1         -17.44          5.911         -163.3         -1.176         -9.747          49.94          48.55
    0.2844               -58.2           33.9          31.77           36.1         -17.44          5.914         -163.2         -1.168         -9.739          49.93          48.54
     0.316               -58.2           33.9          31.76          36.11         -17.43          5.918         -163.2         -1.159          -9.73          49.92          48.53
    0.3476               -58.2           33.9          31.76          36.12         -17.43          5.921         -163.1         -1.149         -9.721          49.91          48.52
    0.3793              -58.19           33.9          31.76          36.13         -17.43          5.925         -163.0         -1.138         -9.711          49.89          48.51
    0.4109              -58.19          33.89          31.76          36.13         -17.42           5.93         -162.9         -1.127           -9.7          49.88           48.5
    0.4425              -58.19          33.89          31.75          36.14         -17.41          5.935         -162.8         -1.115         -9.688          49.86          48.49
    0.4741              -58.19          33.89          31.75          36.15         -17.41           5.94         -162.7         -1.101         -9.675          49.85          48.48
    0.5057              -58.18          33.89          31.75          36.17          -17.4          5.945         -162.6         -1.087         -9.661          49.83          48.47
    0.5373              -58.18          33.89          31.74          36.18         -17.39          5.952         -162.4         -1.071         -9.646          49.81          48.45
    0.5689              -58.18          33.88          31.74          36.19         -17.39          5.958         -162.3         -1.054          -9.63          49.79          48.44
    0.6005              -58.17          33.88          31.73          36.21         -17.38          5.966         -162.1         -1.035         -9.612          49.76          48.42
    0.6321              -58.17          33.88          31.73          36.22         -17.37          5.974         -162.0         -1.014         -9.592          49.74           48.4
    0.6637              -58.17          33.87          31.72          36.24         -17.36          5.982         -161.8        -0.9913          -9.57          49.71          48.38
    0.6953              -58.16          33.87          31.72          36.26         -17.35          5.992         -161.6        -0.9661         -9.546          49.67          48.36
    0.7269              -58.16          33.87          31.71          36.28         -17.33          6.003         -161.3        -0.9382         -9.519          49.64          48.33
    0.7585              -58.15          33.86           31.7          36.31         -17.32          6.015         -161.1        -0.9072         -9.489           49.6           48.3
    0.7901              -58.14          33.85           31.7          36.34          -17.3          6.028         -160.8        -0.8725         -9.456          49.56          48.27
    0.8217              -58.14          33.85          31.69          36.37         -17.29          6.043         -160.5        -0.8337         -9.419          49.51          48.24
    0.8533              -58.13          33.84          31.68           36.4         -17.27           6.06         -160.1        -0.7901         -9.377          49.45           48.2
    0.8849              -58.12          33.83          31.66          36.44         -17.24          6.079         -159.7        -0.7408          -9.33          49.39          48.16
    0.9165              -58.11          33.83          31.65          36.48         -17.22          6.101         -159.3        -0.6848         -9.276          49.32           48.1
    0.9481               -58.1          33.82          31.64          36.54         -17.19          6.126         -158.7        -0.6209         -9.215          49.24          48.05
    0.9797              -58.08           33.8          31.62          36.59         -17.15          6.154         -158.1        -0.5476         -9.144          49.15          47.98
     1.011              -58.07          33.79           31.6          36.66         -17.11          6.187         -157.4        -0.4629         -9.063          49.04          47.91
     1.043              -58.05          33.78          31.57          36.74         -17.07          6.225         -156.6        -0.3645         -8.969          48.91          47.82
     1.075              -58.03          33.76          31.55          36.83         -17.02           6.27         -155.7        -0.2494         -8.858          48.77          47.71
     1.106               -58.0          33.74          31.51          36.94         -16.95          6.322         -154.6        -0.1137         -8.728           48.6          47.59
     1.138              -57.97          33.71          31.48          37.07         -16.88          6.385         -153.3        0.04758         -8.574          48.39          47.45
     1.169              -57.94          33.68          31.43          37.22         -16.79           6.46         -151.7         0.2409         -8.388          48.15          47.27
     1.201              -57.89          33.65          31.37           37.4         -16.68           6.55         -149.8         0.4747         -8.164          47.85          47.06
     1.233              -57.84           33.6           31.3          37.63         -16.55          6.661         -147.4         0.7604          -7.89          47.49          46.81
     1.264              -57.78          33.55          31.22          37.91         -16.39          6.798         -144.5          1.113         -7.552          47.05          46.49
     1.296              -57.69          33.48          31.12          38.26         -16.19          6.968         -140.9          1.553          -7.13          46.49          46.09
     1.327              -57.59           33.4          30.98           38.7         -15.93          7.183         -136.4          2.107         -6.599          45.79           45.6
